# xmcd CD database file
#
# Track frame offsets:
#	150
#	16287
#	42773
#	58644
#	80926
#	100575
#	113966
#	124389
#	139659
#	159633
#	179555
#	195672
#
# Disc length: 2882 seconds
#
# Revision: 0
# Processed by: cddbd v1.5.1PL2 Copyright (c) Steve Scherf et al.
# Submitted via: CDex 1.51
#
DISCID=a60b400c
DTITLE=黒石ひとみ - 美しの里 - Legend of Peach Valley
DYEAR=2001
DGENRE=Instrumental
TTITLE0=美しの里
TTITLE1=風色の稜線
TTITLE2=やすらぎが降りてくる午後
TTITLE3=愛へのトビラ
TTITLE4=やさしさの波紋
TTITLE5=さまよう途
TTITLE6=天空に守られて
TTITLE7=桃の谷
TTITLE8=光と静寂のデュオ
TTITLE9=美しの里 (Windy Version)
TTITLE10=古代からの贈り物
TTITLE11=奇跡の地 - Legend of Peach Valley
EXTD=YEAR: 2001
EXTT0=
EXTT1=
EXTT2=
EXTT3=
EXTT4=
EXTT5=
EXTT6=
EXTT7=
EXTT8=
EXTT9=
EXTT10=
EXTT11=
PLAYORDER=
